<svg xmlns="http://www.w3.org/2000/svg" xmlns:xlink="http://www.w3.org/1999/xlink" width="500" zoomAndPan="magnify" viewBox="0 0 375 374.999991" height="500" preserveAspectRatio="xMidYMid meet" version="1.0"><defs><g/><linearGradient x1="0" gradientTransform="matrix(0.75, 0, 0, 0.75, 0.0000045, 0)" y1="0" x2="499.999979" gradientUnits="userSpaceOnUse" y2="0" id="d3d40a2bcb"><stop stop-opacity="1" stop-color="rgb(36.499023%, 87.799072%, 90.19928%)" offset="0"/><stop stop-opacity="1" stop-color="rgb(36.355591%, 87.568665%, 90.110779%)" offset="0.00390625"/><stop stop-opacity="1" stop-color="rgb(36.213684%, 87.339783%, 90.023804%)" offset="0.0078125"/><stop stop-opacity="1" stop-color="rgb(36.070251%, 87.109375%, 89.936829%)" offset="0.0117187"/><stop stop-opacity="1" stop-color="rgb(35.928345%, 86.880493%, 89.849854%)" offset="0.015625"/><stop stop-opacity="1" stop-color="rgb(35.786438%, 86.650085%, 89.761353%)" offset="0.0195312"/><stop stop-opacity="1" stop-color="rgb(35.644531%, 86.421204%, 89.674377%)" offset="0.0234375"/><stop stop-opacity="1" stop-color="rgb(35.501099%, 86.190796%, 89.585876%)" offset="0.0273438"/><stop stop-opacity="1" stop-color="rgb(35.359192%, 85.961914%, 89.498901%)" offset="0.03125"/><stop stop-opacity="1" stop-color="rgb(35.215759%, 85.731506%, 89.411926%)" offset="0.0351562"/><stop stop-opacity="1" stop-color="rgb(35.073853%, 85.502625%, 89.324951%)" offset="0.0390625"/><stop stop-opacity="1" stop-color="rgb(34.93042%, 85.272217%, 89.23645%)" offset="0.0429687"/><stop stop-opacity="1" stop-color="rgb(34.788513%, 85.043335%, 89.149475%)" offset="0.046875"/><stop stop-opacity="1" stop-color="rgb(34.645081%, 84.812927%, 89.060974%)" offset="0.0507812"/><stop stop-opacity="1" stop-color="rgb(34.503174%, 84.584045%, 88.973999%)" offset="0.0546875"/><stop stop-opacity="1" stop-color="rgb(34.359741%, 84.353638%, 88.885498%)" offset="0.0585938"/><stop stop-opacity="1" stop-color="rgb(34.217834%, 84.124756%, 88.798523%)" offset="0.0625"/><stop stop-opacity="1" stop-color="rgb(34.074402%, 83.894348%, 88.711548%)" offset="0.0664062"/><stop stop-opacity="1" stop-color="rgb(33.932495%, 83.665466%, 88.624573%)" offset="0.0703125"/><stop stop-opacity="1" stop-color="rgb(33.789062%, 83.435059%, 88.536072%)" offset="0.0742187"/><stop stop-opacity="1" stop-color="rgb(33.647156%, 83.206177%, 88.449097%)" offset="0.078125"/><stop stop-opacity="1" stop-color="rgb(33.503723%, 82.975769%, 88.360596%)" offset="0.0820312"/><stop stop-opacity="1" stop-color="rgb(33.361816%, 82.745361%, 88.273621%)" offset="0.0859375"/><stop stop-opacity="1" stop-color="rgb(33.21991%, 82.514954%, 88.186646%)" offset="0.0898437"/><stop stop-opacity="1" stop-color="rgb(33.078003%, 82.286072%, 88.09967%)" offset="0.09375"/><stop stop-opacity="1" stop-color="rgb(32.93457%, 82.055664%, 88.011169%)" offset="0.0976562"/><stop stop-opacity="1" stop-color="rgb(32.792664%, 81.826782%, 87.924194%)" offset="0.101562"/><stop stop-opacity="1" stop-color="rgb(32.649231%, 81.596375%, 87.835693%)" offset="0.105469"/><stop stop-opacity="1" stop-color="rgb(32.507324%, 81.367493%, 87.748718%)" offset="0.109375"/><stop stop-opacity="1" stop-color="rgb(32.363892%, 81.137085%, 87.661743%)" offset="0.113281"/><stop stop-opacity="1" stop-color="rgb(32.221985%, 80.908203%, 87.574768%)" offset="0.117188"/><stop stop-opacity="1" stop-color="rgb(32.078552%, 80.677795%, 87.486267%)" offset="0.121094"/><stop stop-opacity="1" stop-color="rgb(31.936646%, 80.448914%, 87.399292%)" offset="0.125"/><stop stop-opacity="1" stop-color="rgb(31.793213%, 80.218506%, 87.310791%)" offset="0.128906"/><stop stop-opacity="1" stop-color="rgb(31.651306%, 79.989624%, 87.223816%)" offset="0.132812"/><stop stop-opacity="1" stop-color="rgb(31.507874%, 79.759216%, 87.136841%)" offset="0.136719"/><stop stop-opacity="1" stop-color="rgb(31.365967%, 79.530334%, 87.049866%)" offset="0.140625"/><stop stop-opacity="1" stop-color="rgb(31.222534%, 79.299927%, 86.961365%)" offset="0.144531"/><stop stop-opacity="1" stop-color="rgb(31.080627%, 79.071045%, 86.87439%)" offset="0.148437"/><stop stop-opacity="1" stop-color="rgb(30.938721%, 78.840637%, 86.785889%)" offset="0.152344"/><stop stop-opacity="1" stop-color="rgb(30.796814%, 78.611755%, 86.698914%)" offset="0.15625"/><stop stop-opacity="1" stop-color="rgb(30.653381%, 78.381348%, 86.611938%)" offset="0.160156"/><stop stop-opacity="1" stop-color="rgb(30.511475%, 78.152466%, 86.524963%)" offset="0.164062"/><stop stop-opacity="1" stop-color="rgb(30.368042%, 77.922058%, 86.436462%)" offset="0.167969"/><stop stop-opacity="1" stop-color="rgb(30.226135%, 77.693176%, 86.349487%)" offset="0.171875"/><stop stop-opacity="1" stop-color="rgb(30.082703%, 77.462769%, 86.260986%)" offset="0.175781"/><stop stop-opacity="1" stop-color="rgb(29.940796%, 77.233887%, 86.174011%)" offset="0.179687"/><stop stop-opacity="1" stop-color="rgb(29.797363%, 77.003479%, 86.08551%)" offset="0.183594"/><stop stop-opacity="1" stop-color="rgb(29.655457%, 76.774597%, 85.998535%)" offset="0.1875"/><stop stop-opacity="1" stop-color="rgb(29.512024%, 76.544189%, 85.91156%)" offset="0.191406"/><stop stop-opacity="1" stop-color="rgb(29.370117%, 76.315308%, 85.824585%)" offset="0.195312"/><stop stop-opacity="1" stop-color="rgb(29.226685%, 76.0849%, 85.736084%)" offset="0.199219"/><stop stop-opacity="1" stop-color="rgb(29.084778%, 75.856018%, 85.649109%)" offset="0.203125"/><stop stop-opacity="1" stop-color="rgb(28.941345%, 75.62561%, 85.560608%)" offset="0.207031"/><stop stop-opacity="1" stop-color="rgb(28.799438%, 75.396729%, 85.473633%)" offset="0.210938"/><stop stop-opacity="1" stop-color="rgb(28.657532%, 75.166321%, 85.386658%)" offset="0.214844"/><stop stop-opacity="1" stop-color="rgb(28.515625%, 74.937439%, 85.299683%)" offset="0.21875"/><stop stop-opacity="1" stop-color="rgb(28.372192%, 74.707031%, 85.211182%)" offset="0.222656"/><stop stop-opacity="1" stop-color="rgb(28.230286%, 74.476624%, 85.124207%)" offset="0.226562"/><stop stop-opacity="1" stop-color="rgb(28.086853%, 74.246216%, 85.035706%)" offset="0.230469"/><stop stop-opacity="1" stop-color="rgb(27.944946%, 74.017334%, 84.94873%)" offset="0.234375"/><stop stop-opacity="1" stop-color="rgb(27.801514%, 73.786926%, 84.861755%)" offset="0.238281"/><stop stop-opacity="1" stop-color="rgb(27.659607%, 73.558044%, 84.77478%)" offset="0.242188"/><stop stop-opacity="1" stop-color="rgb(27.516174%, 73.327637%, 84.686279%)" offset="0.246094"/><stop stop-opacity="1" stop-color="rgb(27.374268%, 73.098755%, 84.599304%)" offset="0.25"/><stop stop-opacity="1" stop-color="rgb(27.230835%, 72.868347%, 84.510803%)" offset="0.253906"/><stop stop-opacity="1" stop-color="rgb(27.088928%, 72.639465%, 84.423828%)" offset="0.257812"/><stop stop-opacity="1" stop-color="rgb(26.945496%, 72.409058%, 84.336853%)" offset="0.261719"/><stop stop-opacity="1" stop-color="rgb(26.803589%, 72.180176%, 84.249878%)" offset="0.265625"/><stop stop-opacity="1" stop-color="rgb(26.660156%, 71.949768%, 84.161377%)" offset="0.269531"/><stop stop-opacity="1" stop-color="rgb(26.51825%, 71.720886%, 84.074402%)" offset="0.273437"/><stop stop-opacity="1" stop-color="rgb(26.374817%, 71.490479%, 83.985901%)" offset="0.277344"/><stop stop-opacity="1" stop-color="rgb(26.23291%, 71.261597%, 83.898926%)" offset="0.28125"/><stop stop-opacity="1" stop-color="rgb(26.091003%, 71.031189%, 83.811951%)" offset="0.285156"/><stop stop-opacity="1" stop-color="rgb(25.949097%, 70.802307%, 83.724976%)" offset="0.289062"/><stop stop-opacity="1" stop-color="rgb(25.805664%, 70.571899%, 83.636475%)" offset="0.292969"/><stop stop-opacity="1" stop-color="rgb(25.663757%, 70.343018%, 83.5495%)" offset="0.296875"/><stop stop-opacity="1" stop-color="rgb(25.520325%, 70.11261%, 83.460999%)" offset="0.300781"/><stop stop-opacity="1" stop-color="rgb(25.378418%, 69.883728%, 83.374023%)" offset="0.304687"/><stop stop-opacity="1" stop-color="rgb(25.234985%, 69.65332%, 83.285522%)" offset="0.308594"/><stop stop-opacity="1" stop-color="rgb(25.093079%, 69.424438%, 83.198547%)" offset="0.3125"/><stop stop-opacity="1" stop-color="rgb(24.949646%, 69.194031%, 83.111572%)" offset="0.316406"/><stop stop-opacity="1" stop-color="rgb(24.807739%, 68.965149%, 83.024597%)" offset="0.320312"/><stop stop-opacity="1" stop-color="rgb(24.664307%, 68.734741%, 82.936096%)" offset="0.324219"/><stop stop-opacity="1" stop-color="rgb(24.5224%, 68.505859%, 82.849121%)" offset="0.328125"/><stop stop-opacity="1" stop-color="rgb(24.378967%, 68.275452%, 82.76062%)" offset="0.332031"/><stop stop-opacity="1" stop-color="rgb(24.237061%, 68.04657%, 82.673645%)" offset="0.335937"/><stop stop-opacity="1" stop-color="rgb(24.093628%, 67.816162%, 82.58667%)" offset="0.339844"/><stop stop-opacity="1" stop-color="rgb(23.951721%, 67.58728%, 82.499695%)" offset="0.34375"/><stop stop-opacity="1" stop-color="rgb(23.809814%, 67.356873%, 82.411194%)" offset="0.347656"/><stop stop-opacity="1" stop-color="rgb(23.667908%, 67.127991%, 82.324219%)" offset="0.351562"/><stop stop-opacity="1" stop-color="rgb(23.524475%, 66.897583%, 82.235718%)" offset="0.355469"/><stop stop-opacity="1" stop-color="rgb(23.382568%, 66.668701%, 82.148743%)" offset="0.359375"/><stop stop-opacity="1" stop-color="rgb(23.239136%, 66.438293%, 82.061768%)" offset="0.363281"/><stop stop-opacity="1" stop-color="rgb(23.097229%, 66.207886%, 81.974792%)" offset="0.367187"/><stop stop-opacity="1" stop-color="rgb(22.953796%, 65.977478%, 81.886292%)" offset="0.371094"/><stop stop-opacity="1" stop-color="rgb(22.81189%, 65.748596%, 81.799316%)" offset="0.375"/><stop stop-opacity="1" stop-color="rgb(22.668457%, 65.518188%, 81.710815%)" offset="0.378906"/><stop stop-opacity="1" stop-color="rgb(22.52655%, 65.289307%, 81.62384%)" offset="0.382812"/><stop stop-opacity="1" stop-color="rgb(22.383118%, 65.058899%, 81.536865%)" offset="0.386719"/><stop stop-opacity="1" stop-color="rgb(22.241211%, 64.830017%, 81.44989%)" offset="0.390625"/><stop stop-opacity="1" stop-color="rgb(22.097778%, 64.599609%, 81.361389%)" offset="0.394531"/><stop stop-opacity="1" stop-color="rgb(21.955872%, 64.370728%, 81.274414%)" offset="0.398438"/><stop stop-opacity="1" stop-color="rgb(21.812439%, 64.14032%, 81.185913%)" offset="0.402344"/><stop stop-opacity="1" stop-color="rgb(21.670532%, 63.911438%, 81.098938%)" offset="0.40625"/><stop stop-opacity="1" stop-color="rgb(21.528625%, 63.68103%, 81.011963%)" offset="0.410156"/><stop stop-opacity="1" stop-color="rgb(21.386719%, 63.452148%, 80.924988%)" offset="0.414062"/><stop stop-opacity="1" stop-color="rgb(21.243286%, 63.221741%, 80.836487%)" offset="0.417969"/><stop stop-opacity="1" stop-color="rgb(21.101379%, 62.992859%, 80.749512%)" offset="0.421875"/><stop stop-opacity="1" stop-color="rgb(20.957947%, 62.762451%, 80.661011%)" offset="0.425781"/><stop stop-opacity="1" stop-color="rgb(20.81604%, 62.533569%, 80.574036%)" offset="0.429688"/><stop stop-opacity="1" stop-color="rgb(20.672607%, 62.303162%, 80.485535%)" offset="0.433594"/><stop stop-opacity="1" stop-color="rgb(20.530701%, 62.07428%, 80.39856%)" offset="0.4375"/><stop stop-opacity="1" stop-color="rgb(20.387268%, 61.843872%, 80.311584%)" offset="0.441406"/><stop stop-opacity="1" stop-color="rgb(20.245361%, 61.61499%, 80.224609%)" offset="0.445312"/><stop stop-opacity="1" stop-color="rgb(20.101929%, 61.384583%, 80.136108%)" offset="0.449219"/><stop stop-opacity="1" stop-color="rgb(19.960022%, 61.155701%, 80.049133%)" offset="0.453125"/><stop stop-opacity="1" stop-color="rgb(19.816589%, 60.925293%, 79.960632%)" offset="0.457031"/><stop stop-opacity="1" stop-color="rgb(19.674683%, 60.696411%, 79.873657%)" offset="0.460938"/><stop stop-opacity="1" stop-color="rgb(19.53125%, 60.466003%, 79.786682%)" offset="0.464844"/><stop stop-opacity="1" stop-color="rgb(19.389343%, 60.237122%, 79.699707%)" offset="0.46875"/><stop stop-opacity="1" stop-color="rgb(19.245911%, 60.006714%, 79.611206%)" offset="0.472656"/><stop stop-opacity="1" stop-color="rgb(19.104004%, 59.777832%, 79.524231%)" offset="0.476562"/><stop stop-opacity="1" stop-color="rgb(18.962097%, 59.547424%, 79.43573%)" offset="0.480469"/><stop stop-opacity="1" stop-color="rgb(18.82019%, 59.318542%, 79.348755%)" offset="0.484375"/><stop stop-opacity="1" stop-color="rgb(18.676758%, 59.088135%, 79.26178%)" offset="0.488281"/><stop stop-opacity="1" stop-color="rgb(18.534851%, 58.859253%, 79.174805%)" offset="0.492188"/><stop stop-opacity="1" stop-color="rgb(18.391418%, 58.628845%, 79.086304%)" offset="0.496094"/><stop stop-opacity="1" stop-color="rgb(18.249512%, 58.399963%, 78.999329%)" offset="0.5"/><stop stop-opacity="1" stop-color="rgb(18.106079%, 58.169556%, 78.910828%)" offset="0.503906"/><stop stop-opacity="1" stop-color="rgb(17.964172%, 57.939148%, 78.823853%)" offset="0.507812"/><stop stop-opacity="1" stop-color="rgb(17.82074%, 57.70874%, 78.736877%)" offset="0.511719"/><stop stop-opacity="1" stop-color="rgb(17.678833%, 57.479858%, 78.649902%)" offset="0.515625"/><stop stop-opacity="1" stop-color="rgb(17.5354%, 57.249451%, 78.561401%)" offset="0.519531"/><stop stop-opacity="1" stop-color="rgb(17.393494%, 57.020569%, 78.474426%)" offset="0.523437"/><stop stop-opacity="1" stop-color="rgb(17.250061%, 56.790161%, 78.385925%)" offset="0.527344"/><stop stop-opacity="1" stop-color="rgb(17.108154%, 56.561279%, 78.29895%)" offset="0.53125"/><stop stop-opacity="1" stop-color="rgb(16.964722%, 56.330872%, 78.211975%)" offset="0.535156"/><stop stop-opacity="1" stop-color="rgb(16.822815%, 56.10199%, 78.125%)" offset="0.539062"/><stop stop-opacity="1" stop-color="rgb(16.680908%, 55.871582%, 78.036499%)" offset="0.542969"/><stop stop-opacity="1" stop-color="rgb(16.539001%, 55.6427%, 77.949524%)" offset="0.546875"/><stop stop-opacity="1" stop-color="rgb(16.395569%, 55.412292%, 77.861023%)" offset="0.550781"/><stop stop-opacity="1" stop-color="rgb(16.253662%, 55.183411%, 77.774048%)" offset="0.554687"/><stop stop-opacity="1" stop-color="rgb(16.110229%, 54.953003%, 77.685547%)" offset="0.558594"/><stop stop-opacity="1" stop-color="rgb(15.968323%, 54.724121%, 77.598572%)" offset="0.5625"/><stop stop-opacity="1" stop-color="rgb(15.82489%, 54.493713%, 77.511597%)" offset="0.566406"/><stop stop-opacity="1" stop-color="rgb(15.682983%, 54.264832%, 77.424622%)" offset="0.570312"/><stop stop-opacity="1" stop-color="rgb(15.539551%, 54.034424%, 77.336121%)" offset="0.574219"/><stop stop-opacity="1" stop-color="rgb(15.397644%, 53.805542%, 77.249146%)" offset="0.578125"/><stop stop-opacity="1" stop-color="rgb(15.254211%, 53.575134%, 77.160645%)" offset="0.582031"/><stop stop-opacity="1" stop-color="rgb(15.112305%, 53.346252%, 77.073669%)" offset="0.585937"/><stop stop-opacity="1" stop-color="rgb(14.968872%, 53.115845%, 76.986694%)" offset="0.589844"/><stop stop-opacity="1" stop-color="rgb(14.826965%, 52.886963%, 76.899719%)" offset="0.59375"/><stop stop-opacity="1" stop-color="rgb(14.683533%, 52.656555%, 76.811218%)" offset="0.597656"/><stop stop-opacity="1" stop-color="rgb(14.541626%, 52.427673%, 76.724243%)" offset="0.601562"/><stop stop-opacity="1" stop-color="rgb(14.399719%, 52.197266%, 76.635742%)" offset="0.605469"/><stop stop-opacity="1" stop-color="rgb(14.257812%, 51.968384%, 76.548767%)" offset="0.609375"/><stop stop-opacity="1" stop-color="rgb(14.11438%, 51.737976%, 76.461792%)" offset="0.613281"/><stop stop-opacity="1" stop-color="rgb(13.972473%, 51.509094%, 76.374817%)" offset="0.617187"/><stop stop-opacity="1" stop-color="rgb(13.829041%, 51.278687%, 76.286316%)" offset="0.621094"/><stop stop-opacity="1" stop-color="rgb(13.687134%, 51.049805%, 76.199341%)" offset="0.625"/><stop stop-opacity="1" stop-color="rgb(13.543701%, 50.819397%, 76.11084%)" offset="0.628906"/><stop stop-opacity="1" stop-color="rgb(13.401794%, 50.590515%, 76.023865%)" offset="0.632812"/><stop stop-opacity="1" stop-color="rgb(13.258362%, 50.360107%, 75.93689%)" offset="0.636719"/><stop stop-opacity="1" stop-color="rgb(13.116455%, 50.131226%, 75.849915%)" offset="0.640625"/><stop stop-opacity="1" stop-color="rgb(12.973022%, 49.900818%, 75.761414%)" offset="0.644531"/><stop stop-opacity="1" stop-color="rgb(12.831116%, 49.67041%, 75.674438%)" offset="0.648437"/><stop stop-opacity="1" stop-color="rgb(12.687683%, 49.440002%, 75.585938%)" offset="0.652344"/><stop stop-opacity="1" stop-color="rgb(12.545776%, 49.211121%, 75.498962%)" offset="0.65625"/><stop stop-opacity="1" stop-color="rgb(12.402344%, 48.980713%, 75.410461%)" offset="0.660156"/><stop stop-opacity="1" stop-color="rgb(12.260437%, 48.751831%, 75.323486%)" offset="0.664062"/><stop stop-opacity="1" stop-color="rgb(12.117004%, 48.521423%, 75.236511%)" offset="0.667969"/><stop stop-opacity="1" stop-color="rgb(11.975098%, 48.292542%, 75.149536%)" offset="0.671875"/><stop stop-opacity="1" stop-color="rgb(11.833191%, 48.062134%, 75.061035%)" offset="0.675781"/><stop stop-opacity="1" stop-color="rgb(11.691284%, 47.833252%, 74.97406%)" offset="0.679687"/><stop stop-opacity="1" stop-color="rgb(11.547852%, 47.602844%, 74.885559%)" offset="0.683594"/><stop stop-opacity="1" stop-color="rgb(11.405945%, 47.373962%, 74.798584%)" offset="0.6875"/><stop stop-opacity="1" stop-color="rgb(11.262512%, 47.143555%, 74.711609%)" offset="0.691406"/><stop stop-opacity="1" stop-color="rgb(11.120605%, 46.914673%, 74.624634%)" offset="0.695312"/><stop stop-opacity="1" stop-color="rgb(10.977173%, 46.684265%, 74.536133%)" offset="0.699219"/><stop stop-opacity="1" stop-color="rgb(10.835266%, 46.455383%, 74.449158%)" offset="0.703125"/><stop stop-opacity="1" stop-color="rgb(10.691833%, 46.224976%, 74.360657%)" offset="0.707031"/><stop stop-opacity="1" stop-color="rgb(10.549927%, 45.996094%, 74.273682%)" offset="0.710937"/><stop stop-opacity="1" stop-color="rgb(10.406494%, 45.765686%, 74.186707%)" offset="0.714844"/><stop stop-opacity="1" stop-color="rgb(10.264587%, 45.536804%, 74.099731%)" offset="0.71875"/><stop stop-opacity="1" stop-color="rgb(10.121155%, 45.306396%, 74.01123%)" offset="0.722656"/><stop stop-opacity="1" stop-color="rgb(9.979248%, 45.077515%, 73.924255%)" offset="0.726562"/><stop stop-opacity="1" stop-color="rgb(9.835815%, 44.847107%, 73.835754%)" offset="0.730469"/><stop stop-opacity="1" stop-color="rgb(9.693909%, 44.618225%, 73.748779%)" offset="0.734375"/><stop stop-opacity="1" stop-color="rgb(9.552002%, 44.387817%, 73.661804%)" offset="0.738281"/><stop stop-opacity="1" stop-color="rgb(9.410095%, 44.158936%, 73.574829%)" offset="0.742187"/><stop stop-opacity="1" stop-color="rgb(9.266663%, 43.928528%, 73.486328%)" offset="0.746094"/><stop stop-opacity="1" stop-color="rgb(9.124756%, 43.699646%, 73.399353%)" offset="0.75"/><stop stop-opacity="1" stop-color="rgb(8.981323%, 43.469238%, 73.310852%)" offset="0.753906"/><stop stop-opacity="1" stop-color="rgb(8.839417%, 43.240356%, 73.223877%)" offset="0.757812"/><stop stop-opacity="1" stop-color="rgb(8.695984%, 43.009949%, 73.136902%)" offset="0.761719"/><stop stop-opacity="1" stop-color="rgb(8.554077%, 42.781067%, 73.049927%)" offset="0.765625"/><stop stop-opacity="1" stop-color="rgb(8.410645%, 42.550659%, 72.961426%)" offset="0.769531"/><stop stop-opacity="1" stop-color="rgb(8.268738%, 42.321777%, 72.874451%)" offset="0.773438"/><stop stop-opacity="1" stop-color="rgb(8.125305%, 42.09137%, 72.78595%)" offset="0.777344"/><stop stop-opacity="1" stop-color="rgb(7.983398%, 41.862488%, 72.698975%)" offset="0.78125"/><stop stop-opacity="1" stop-color="rgb(7.839966%, 41.63208%, 72.610474%)" offset="0.785156"/><stop stop-opacity="1" stop-color="rgb(7.698059%, 41.401672%, 72.523499%)" offset="0.789062"/><stop stop-opacity="1" stop-color="rgb(7.554626%, 41.171265%, 72.436523%)" offset="0.792969"/><stop stop-opacity="1" stop-color="rgb(7.41272%, 40.942383%, 72.349548%)" offset="0.796875"/><stop stop-opacity="1" stop-color="rgb(7.270813%, 40.711975%, 72.261047%)" offset="0.800781"/><stop stop-opacity="1" stop-color="rgb(7.128906%, 40.483093%, 72.174072%)" offset="0.804688"/><stop stop-opacity="1" stop-color="rgb(6.985474%, 40.252686%, 72.085571%)" offset="0.808594"/><stop stop-opacity="1" stop-color="rgb(6.843567%, 40.023804%, 71.998596%)" offset="0.8125"/><stop stop-opacity="1" stop-color="rgb(6.700134%, 39.793396%, 71.911621%)" offset="0.816406"/><stop stop-opacity="1" stop-color="rgb(6.558228%, 39.564514%, 71.824646%)" offset="0.820312"/><stop stop-opacity="1" stop-color="rgb(6.414795%, 39.334106%, 71.736145%)" offset="0.824219"/><stop stop-opacity="1" stop-color="rgb(6.272888%, 39.105225%, 71.64917%)" offset="0.828125"/><stop stop-opacity="1" stop-color="rgb(6.129456%, 38.874817%, 71.560669%)" offset="0.832031"/><stop stop-opacity="1" stop-color="rgb(5.987549%, 38.645935%, 71.473694%)" offset="0.835938"/><stop stop-opacity="1" stop-color="rgb(5.844116%, 38.415527%, 71.386719%)" offset="0.839844"/><stop stop-opacity="1" stop-color="rgb(5.702209%, 38.186646%, 71.299744%)" offset="0.84375"/><stop stop-opacity="1" stop-color="rgb(5.558777%, 37.956238%, 71.211243%)" offset="0.847656"/><stop stop-opacity="1" stop-color="rgb(5.41687%, 37.727356%, 71.124268%)" offset="0.851562"/><stop stop-opacity="1" stop-color="rgb(5.273438%, 37.496948%, 71.035767%)" offset="0.855469"/><stop stop-opacity="1" stop-color="rgb(5.131531%, 37.268066%, 70.948792%)" offset="0.859375"/><stop stop-opacity="1" stop-color="rgb(4.988098%, 37.037659%, 70.861816%)" offset="0.863281"/><stop stop-opacity="1" stop-color="rgb(4.846191%, 36.808777%, 70.774841%)" offset="0.867188"/><stop stop-opacity="1" stop-color="rgb(4.704285%, 36.578369%, 70.68634%)" offset="0.871094"/><stop stop-opacity="1" stop-color="rgb(4.562378%, 36.349487%, 70.599365%)" offset="0.875"/><stop stop-opacity="1" stop-color="rgb(4.418945%, 36.11908%, 70.510864%)" offset="0.878906"/><stop stop-opacity="1" stop-color="rgb(4.277039%, 35.890198%, 70.423889%)" offset="0.882812"/><stop stop-opacity="1" stop-color="rgb(4.133606%, 35.65979%, 70.336914%)" offset="0.886719"/><stop stop-opacity="1" stop-color="rgb(3.991699%, 35.430908%, 70.249939%)" offset="0.890625"/><stop stop-opacity="1" stop-color="rgb(3.848267%, 35.2005%, 70.161438%)" offset="0.894531"/><stop stop-opacity="1" stop-color="rgb(3.70636%, 34.971619%, 70.074463%)" offset="0.898438"/><stop stop-opacity="1" stop-color="rgb(3.562927%, 34.741211%, 69.985962%)" offset="0.902344"/><stop stop-opacity="1" stop-color="rgb(3.421021%, 34.512329%, 69.898987%)" offset="0.90625"/><stop stop-opacity="1" stop-color="rgb(3.277588%, 34.281921%, 69.810486%)" offset="0.910156"/><stop stop-opacity="1" stop-color="rgb(3.135681%, 34.05304%, 69.723511%)" offset="0.914062"/><stop stop-opacity="1" stop-color="rgb(2.992249%, 33.822632%, 69.636536%)" offset="0.917969"/><stop stop-opacity="1" stop-color="rgb(2.850342%, 33.59375%, 69.549561%)" offset="0.921875"/><stop stop-opacity="1" stop-color="rgb(2.706909%, 33.363342%, 69.46106%)" offset="0.925781"/><stop stop-opacity="1" stop-color="rgb(2.565002%, 33.132935%, 69.374084%)" offset="0.929688"/><stop stop-opacity="1" stop-color="rgb(2.423096%, 32.902527%, 69.285583%)" offset="0.933594"/><stop stop-opacity="1" stop-color="rgb(2.281189%, 32.673645%, 69.198608%)" offset="0.9375"/><stop stop-opacity="1" stop-color="rgb(2.137756%, 32.443237%, 69.111633%)" offset="0.941406"/><stop stop-opacity="1" stop-color="rgb(1.99585%, 32.214355%, 69.024658%)" offset="0.945312"/><stop stop-opacity="1" stop-color="rgb(1.852417%, 31.983948%, 68.936157%)" offset="0.949219"/><stop stop-opacity="1" stop-color="rgb(1.71051%, 31.755066%, 68.849182%)" offset="0.953125"/><stop stop-opacity="1" stop-color="rgb(1.567078%, 31.524658%, 68.760681%)" offset="0.957031"/><stop stop-opacity="1" stop-color="rgb(1.425171%, 31.295776%, 68.673706%)" offset="0.960938"/><stop stop-opacity="1" stop-color="rgb(1.281738%, 31.065369%, 68.586731%)" offset="0.964844"/><stop stop-opacity="1" stop-color="rgb(1.139832%, 30.836487%, 68.499756%)" offset="0.96875"/><stop stop-opacity="1" stop-color="rgb(0.996399%, 30.606079%, 68.411255%)" offset="0.972656"/><stop stop-opacity="1" stop-color="rgb(0.854492%, 30.377197%, 68.32428%)" offset="0.976562"/><stop stop-opacity="1" stop-color="rgb(0.71106%, 30.14679%, 68.235779%)" offset="0.980469"/><stop stop-opacity="1" stop-color="rgb(0.569153%, 29.917908%, 68.148804%)" offset="0.984375"/><stop stop-opacity="1" stop-color="rgb(0.42572%, 29.6875%, 68.061829%)" offset="0.988281"/><stop stop-opacity="1" stop-color="rgb(0.283813%, 29.458618%, 67.974854%)" offset="0.992188"/><stop stop-opacity="1" stop-color="rgb(0.141907%, 29.22821%, 67.886353%)" offset="0.996094"/><stop stop-opacity="1" stop-color="rgb(0%, 28.999329%, 67.799377%)" offset="1"/></linearGradient><clipPath id="f9e744698e"><path d="M 57.230469 126 L 270 126 L 270 187 L 57.230469 187 Z M 57.230469 126 " clip-rule="nonzero"/></clipPath><clipPath id="123351bd17"><path d="M 95 164 L 303.980469 164 L 303.980469 192 L 95 192 Z M 95 164 " clip-rule="nonzero"/></clipPath></defs><rect x="-37.5" width="450" fill="#ffffff" y="-37.499999" height="449.999989" fill-opacity="1"/><rect x="-37.5" fill="url(#d3d40a2bcb)" width="450" y="-37.499999" height="449.999989"/><path fill="#004aad" d="M 184.554688 120.097656 C 147.617188 119.925781 115.847656 125.789062 111.265625 126.371094 C 103.933594 127.296875 101.523438 132.339844 101.523438 132.339844 L 87.324219 163.476562 C 89.832031 163.175781 93.070312 162.78125 96.90625 162.316406 C 97.773438 103.222656 246.863281 126.046875 251.859375 129.375 C 230.738281 122.480469 206.714844 120.203125 184.554688 120.097656 Z M 184.554688 120.097656 " fill-opacity="1" fill-rule="nonzero"/><g clip-path="url(#f9e744698e)"><path fill="#004aad" d="M 151.429688 128.328125 C 151.429688 128.328125 190.117188 121.6875 251.328125 132.660156 C 250.75 132.082031 263.164062 142.476562 269.804688 163.839844 C 269.515625 163.554688 104.945312 149.40625 57.304688 186.652344 C 58.171875 185.496094 77.804688 164.996094 136.703125 159.800781 C 195.605469 154.601562 265.765625 168.171875 257.390625 148.25 C 249.015625 128.328125 203.398438 128.328125 151.429688 128.328125 Z M 151.429688 128.328125 " fill-opacity="1" fill-rule="nonzero"/></g><path fill="#004aad" d="M 88.199219 163.191406 L 83.21875 167.8125 C 83.21875 167.8125 79.898438 163.550781 68.566406 163.984375 C 57.234375 164.417969 63.441406 151.859375 70.152344 151.714844 C 76.867188 151.570312 83.363281 150.414062 82.859375 153.878906 C 82.351562 157.347656 82.28125 161.890625 81.269531 162.324219 C 80.257812 162.757812 81.339844 152.4375 72.96875 154.023438 C 64.597656 155.613281 66.257812 159.007812 68.351562 159.800781 C 70.441406 160.59375 73.476562 158.574219 76 161.53125 C 78.527344 164.492188 85.960938 166.078125 88.199219 163.191406 Z M 88.199219 163.191406 " fill-opacity="1" fill-rule="nonzero"/><path fill="#004aad" d="M 269.289062 163.699219 L 274.269531 168.320312 C 274.269531 168.320312 277.589844 164.0625 288.921875 164.492188 C 300.253906 164.925781 294.046875 152.367188 287.335938 152.222656 C 280.621094 152.078125 274.125 150.925781 274.628906 154.390625 C 275.136719 157.851562 275.207031 162.402344 276.21875 162.835938 C 277.230469 163.265625 276.144531 152.945312 284.519531 154.535156 C 292.894531 156.121094 291.234375 159.515625 289.136719 160.308594 C 287.046875 161.101562 284.011719 159.082031 281.488281 162.039062 C 278.960938 165 271.527344 166.585938 269.289062 163.699219 Z M 269.289062 163.699219 " fill-opacity="1" fill-rule="nonzero"/><g clip-path="url(#123351bd17)"><path fill="#004aad" d="M 188.03125 164.417969 C 159.984375 164.515625 129.308594 167.585938 95.453125 177.84375 L 95.507812 177.835938 C 147.574219 165.363281 207.742188 165.625 250.9375 168.75 C 250.796875 168.757812 250.730469 168.753906 250.582031 168.761719 C 244.792969 169.058594 241.285156 169.910156 233.582031 170.597656 C 225.878906 171.285156 218.132812 172.164062 212.175781 173.238281 C 209.195312 173.777344 206.664062 174.359375 204.789062 175 C 203.851562 175.320312 203.078125 175.65625 202.488281 176.019531 C 201.894531 176.382812 201.460938 176.773438 201.28125 177.277344 C 201.097656 177.804688 201.332031 178.363281 201.769531 178.773438 C 256.527344 212.394531 293.871094 148.628906 302.878906 191.878906 C 303.300781 191.851562 303.71875 191.824219 304.121094 191.8125 C 302.28125 178.832031 295.59375 175.636719 292.976562 171.269531 C 292.160156 169.910156 291.074219 169.269531 289.964844 169.167969 C 288.859375 169.070312 287.761719 169.46875 286.789062 170.003906 C 279.625 175.371094 270.898438 178.730469 262.550781 180.3125 C 253.859375 181.878906 244.03125 182.515625 234.851562 182.503906 C 190.691406 174.550781 242.667969 171.015625 264.828125 168.867188 C 241.492188 167.207031 216.078125 164.324219 188.03125 164.417969 Z M 188.03125 164.417969 " fill-opacity="1" fill-rule="nonzero"/></g><g fill="#004aad" fill-opacity="1"><g transform="translate(109.598348, 214.048245)"><g><path d="M 9.734375 0.53125 C 6.773438 0.53125 4.535156 0.144531 3.015625 -0.625 C 1.503906 -1.40625 0.75 -2.710938 0.75 -4.546875 C 0.75 -5.160156 0.820312 -5.8125 0.96875 -6.5 C 1.125 -7.195312 1.285156 -7.851562 1.453125 -8.46875 L 3.328125 -7.984375 C 3.222656 -7.617188 3.109375 -7.15625 2.984375 -6.59375 C 2.859375 -6.03125 2.796875 -5.539062 2.796875 -5.125 C 2.796875 -4.25 3.015625 -3.550781 3.453125 -3.03125 C 3.898438 -2.507812 4.671875 -2.125 5.765625 -1.875 C 6.867188 -1.632812 8.410156 -1.515625 10.390625 -1.515625 C 14.265625 -1.515625 17.097656 -1.726562 18.890625 -2.15625 C 20.679688 -2.582031 21.578125 -3.367188 21.578125 -4.515625 C 21.578125 -5.128906 21.457031 -5.859375 21.21875 -6.703125 C 20.988281 -7.546875 20.691406 -8.441406 20.328125 -9.390625 L 22.25 -10.0625 C 22.5625 -9.25 22.851562 -8.375 23.125 -7.4375 C 23.40625 -6.507812 23.546875 -5.671875 23.546875 -4.921875 C 23.546875 -3.941406 23.320312 -3.101562 22.875 -2.40625 C 22.425781 -1.71875 21.675781 -1.15625 20.625 -0.71875 C 19.570312 -0.289062 18.160156 0.0195312 16.390625 0.21875 C 14.617188 0.425781 12.398438 0.53125 9.734375 0.53125 Z M 13.90625 -10 C 13.5625 -10 13.265625 -10.117188 13.015625 -10.359375 C 12.773438 -10.609375 12.65625 -10.898438 12.65625 -11.234375 C 12.65625 -11.566406 12.773438 -11.859375 13.015625 -12.109375 C 13.265625 -12.359375 13.5625 -12.484375 13.90625 -12.484375 C 14.238281 -12.484375 14.523438 -12.359375 14.765625 -12.109375 C 15.015625 -11.859375 15.140625 -11.566406 15.140625 -11.234375 C 15.140625 -10.898438 15.015625 -10.609375 14.765625 -10.359375 C 14.523438 -10.117188 14.238281 -10 13.90625 -10 Z M 10.484375 -10 C 10.140625 -10 9.847656 -10.117188 9.609375 -10.359375 C 9.367188 -10.609375 9.25 -10.898438 9.25 -11.234375 C 9.25 -11.566406 9.367188 -11.859375 9.609375 -12.109375 C 9.847656 -12.359375 10.140625 -12.484375 10.484375 -12.484375 C 10.816406 -12.484375 11.101562 -12.359375 11.34375 -12.109375 C 11.59375 -11.859375 11.71875 -11.566406 11.71875 -11.234375 C 11.71875 -10.898438 11.59375 -10.609375 11.34375 -10.359375 C 11.101562 -10.117188 10.816406 -10 10.484375 -10 Z M 10.484375 -10 "/></g></g></g><g fill="#004aad" fill-opacity="1"><g transform="translate(134.388287, 214.048245)"><g><path d="M 2.296875 0 L 1.796875 -17.828125 L 3.8125 -17.828125 L 4.3125 0 Z M 2.296875 0 "/></g></g></g><g fill="#004aad" fill-opacity="1"><g transform="translate(140.329878, 214.048245)"><g><path d="M 0.09375 5.75 L -0.625 3.84375 C 1.050781 3.3125 2.34375 2.675781 3.25 1.9375 C 4.164062 1.207031 4.789062 0.441406 5.125 -0.359375 C 5.46875 -1.171875 5.640625 -1.941406 5.640625 -2.671875 C 5.640625 -3.140625 5.585938 -3.585938 5.484375 -4.015625 C 5.390625 -4.453125 5.21875 -4.941406 4.96875 -5.484375 C 4.71875 -6.035156 4.367188 -6.722656 3.921875 -7.546875 L 5.75 -8.46875 C 6.375 -7.382812 6.820312 -6.359375 7.09375 -5.390625 C 7.375 -4.421875 7.515625 -3.570312 7.515625 -2.84375 C 7.515625 -1.789062 7.34375 -0.84375 7 0 C 6.65625 0.84375 6.203125 1.59375 5.640625 2.25 C 5.085938 2.914062 4.484375 3.476562 3.828125 3.9375 C 3.171875 4.40625 2.515625 4.789062 1.859375 5.09375 C 1.203125 5.394531 0.613281 5.613281 0.09375 5.75 Z M 0.09375 5.75 "/></g></g></g><g fill="#004aad" fill-opacity="1"><g transform="translate(149.491917, 214.048245)"><g><path d="M 7.265625 0.125 C 5.921875 0.125 4.894531 -0.0234375 4.1875 -0.328125 C 3.488281 -0.628906 3.003906 -1.09375 2.734375 -1.71875 C 2.472656 -2.351562 2.328125 -3.171875 2.296875 -4.171875 L 1.796875 -17.828125 L 3.84375 -17.828125 L 4.34375 -4.96875 C 4.375 -4.15625 4.453125 -3.523438 4.578125 -3.078125 C 4.703125 -2.640625 4.984375 -2.335938 5.421875 -2.171875 C 5.867188 -2.003906 6.566406 -1.921875 7.515625 -1.921875 C 7.867188 -1.921875 8.125 -1.820312 8.28125 -1.625 C 8.4375 -1.4375 8.515625 -1.210938 8.515625 -0.953125 C 8.515625 -0.679688 8.394531 -0.429688 8.15625 -0.203125 C 7.925781 0.015625 7.628906 0.125 7.265625 0.125 Z M 7.265625 0.125 "/></g></g></g><g fill="#004aad" fill-opacity="1"><g transform="translate(156.756635, 214.048245)"><g><path d="M 0 0.125 L 0.25 -1.921875 C 1.082031 -1.921875 1.726562 -1.984375 2.1875 -2.109375 C 2.65625 -2.234375 3.007812 -2.472656 3.25 -2.828125 C 3.5 -3.191406 3.695312 -3.710938 3.84375 -4.390625 C 3.988281 -5.078125 4.171875 -5.96875 4.390625 -7.0625 L 6.34375 -6.6875 C 6.238281 -6.238281 6.125 -5.722656 6 -5.140625 C 5.875 -4.554688 5.8125 -4.066406 5.8125 -3.671875 C 5.8125 -3.421875 5.828125 -3.1875 5.859375 -2.96875 C 5.898438 -2.75 6.023438 -2.566406 6.234375 -2.421875 C 6.453125 -2.273438 6.816406 -2.15625 7.328125 -2.0625 C 7.847656 -1.96875 8.59375 -1.921875 9.5625 -1.921875 C 9.914062 -1.921875 10.171875 -1.820312 10.328125 -1.625 C 10.484375 -1.4375 10.5625 -1.210938 10.5625 -0.953125 C 10.5625 -0.679688 10.441406 -0.429688 10.203125 -0.203125 C 9.972656 0.015625 9.675781 0.125 9.3125 0.125 C 8.226562 0.125 7.382812 0.0625 6.78125 -0.0625 C 6.175781 -0.1875 5.726562 -0.367188 5.4375 -0.609375 C 5.144531 -0.847656 4.929688 -1.148438 4.796875 -1.515625 C 4.304688 -0.835938 3.707031 -0.394531 3 -0.1875 C 2.300781 0.0195312 1.300781 0.125 0 0.125 Z M 6.28125 4.84375 C 5.9375 4.84375 5.640625 4.722656 5.390625 4.484375 C 5.148438 4.242188 5.03125 3.957031 5.03125 3.625 C 5.03125 3.289062 5.148438 3 5.390625 2.75 C 5.640625 2.5 5.9375 2.375 6.28125 2.375 C 6.613281 2.375 6.898438 2.5 7.140625 2.75 C 7.390625 3 7.515625 3.289062 7.515625 3.625 C 7.515625 3.957031 7.390625 4.242188 7.140625 4.484375 C 6.898438 4.722656 6.613281 4.84375 6.28125 4.84375 Z M 2.859375 4.84375 C 2.515625 4.84375 2.222656 4.722656 1.984375 4.484375 C 1.742188 4.242188 1.625 3.957031 1.625 3.625 C 1.625 3.289062 1.742188 3 1.984375 2.75 C 2.222656 2.5 2.515625 2.375 2.859375 2.375 C 3.191406 2.375 3.476562 2.5 3.71875 2.75 C 3.96875 3 4.09375 3.289062 4.09375 3.625 C 4.09375 3.957031 3.96875 4.242188 3.71875 4.484375 C 3.476562 4.722656 3.191406 4.84375 2.859375 4.84375 Z M 2.859375 4.84375 "/></g></g></g><g fill="#004aad" fill-opacity="1"><g transform="translate(166.068464, 214.048245)"><g><path d="M 0 0.125 L 0.25 -1.921875 C 0.78125 -1.921875 1.210938 -1.957031 1.546875 -2.03125 C 1.878906 -2.101562 2.15625 -2.296875 2.375 -2.609375 C 2.601562 -2.921875 2.816406 -3.40625 3.015625 -4.0625 C 3.222656 -4.726562 3.457031 -5.660156 3.71875 -6.859375 L 5.59375 -6.34375 C 5.488281 -5.90625 5.367188 -5.394531 5.234375 -4.8125 C 5.109375 -4.226562 5.046875 -3.707031 5.046875 -3.25 C 5.046875 -2.832031 5.203125 -2.503906 5.515625 -2.265625 C 5.835938 -2.035156 6.410156 -1.921875 7.234375 -1.921875 C 7.734375 -1.921875 8.140625 -1.960938 8.453125 -2.046875 C 8.773438 -2.128906 9.039062 -2.328125 9.25 -2.640625 C 9.457031 -2.960938 9.644531 -3.46875 9.8125 -4.15625 C 9.976562 -4.84375 10.15625 -5.804688 10.34375 -7.046875 L 12.234375 -6.6875 C 12.179688 -6.394531 12.117188 -6.03125 12.046875 -5.59375 C 11.972656 -5.15625 11.910156 -4.722656 11.859375 -4.296875 C 11.804688 -3.878906 11.78125 -3.53125 11.78125 -3.25 C 11.78125 -3.007812 11.832031 -2.785156 11.9375 -2.578125 C 12.050781 -2.367188 12.269531 -2.207031 12.59375 -2.09375 C 12.914062 -1.976562 13.40625 -1.921875 14.0625 -1.921875 C 14.894531 -1.921875 15.492188 -2.09375 15.859375 -2.4375 C 16.234375 -2.78125 16.421875 -3.316406 16.421875 -4.046875 C 16.421875 -4.609375 16.40625 -5.226562 16.375 -5.90625 C 16.34375 -6.59375 16.257812 -7.453125 16.125 -8.484375 L 17.953125 -8.609375 C 18.054688 -7.265625 18.171875 -6.160156 18.296875 -5.296875 C 18.421875 -4.429688 18.601562 -3.75 18.84375 -3.25 C 19.082031 -2.757812 19.410156 -2.414062 19.828125 -2.21875 C 20.242188 -2.019531 20.789062 -1.921875 21.46875 -1.921875 C 21.820312 -1.921875 22.078125 -1.820312 22.234375 -1.625 C 22.390625 -1.4375 22.46875 -1.210938 22.46875 -0.953125 C 22.46875 -0.679688 22.347656 -0.429688 22.109375 -0.203125 C 21.878906 0.015625 21.582031 0.125 21.21875 0.125 C 20.289062 0.125 19.519531 -0.0820312 18.90625 -0.5 C 18.300781 -0.914062 17.859375 -1.441406 17.578125 -2.078125 C 17.242188 -1.191406 16.738281 -0.601562 16.0625 -0.3125 C 15.394531 -0.0195312 14.648438 0.125 13.828125 0.125 C 12.984375 0.125 12.316406 0.00390625 11.828125 -0.234375 C 11.335938 -0.472656 10.972656 -0.84375 10.734375 -1.34375 C 10.335938 -0.75 9.859375 -0.351562 9.296875 -0.15625 C 8.742188 0.03125 7.957031 0.125 6.9375 0.125 C 6.59375 0.125 6.222656 0.0820312 5.828125 0 C 5.441406 -0.0820312 5.082031 -0.242188 4.75 -0.484375 C 4.414062 -0.722656 4.15625 -1.085938 3.96875 -1.578125 C 3.539062 -0.835938 3.003906 -0.367188 2.359375 -0.171875 C 1.710938 0.0234375 0.925781 0.125 0 0.125 Z M 0 0.125 "/></g></g></g><g fill="#004aad" fill-opacity="1"><g transform="translate(187.288455, 214.048245)"><g><path d="M 0 0.125 L 0.21875 -1.921875 C 1.164062 -1.921875 1.832031 -2.007812 2.21875 -2.1875 C 2.601562 -2.375 2.820312 -2.695312 2.875 -3.15625 C 2.9375 -3.613281 2.953125 -4.269531 2.921875 -5.125 L 2.453125 -17.828125 L 4.46875 -17.828125 L 4.96875 -5.34375 C 5.019531 -4.164062 4.941406 -3.164062 4.734375 -2.34375 C 4.523438 -1.53125 4.054688 -0.914062 3.328125 -0.5 C 2.609375 -0.0820312 1.5 0.125 0 0.125 Z M 0 0.125 "/></g></g></g><g fill="#004aad" fill-opacity="1"><g transform="translate(193.779271, 214.048245)"><g><path d="M 2.296875 0 L 1.796875 -17.828125 L 3.8125 -17.828125 L 4.3125 0 Z M 2.296875 0 "/></g></g></g><g fill="#004aad" fill-opacity="1"><g transform="translate(199.720861, 214.048245)"><g/></g></g><g fill="#004aad" fill-opacity="1"><g transform="translate(206.120485, 214.048245)"><g><path d="M 0.09375 5.796875 L -0.625 3.890625 C 0.988281 3.359375 2.25 2.726562 3.15625 2 C 4.0625 1.269531 4.703125 0.503906 5.078125 -0.296875 C 5.453125 -1.109375 5.640625 -1.898438 5.640625 -2.671875 C 5.640625 -3.484375 5.457031 -4.3125 5.09375 -5.15625 C 4.738281 -6 4.347656 -6.796875 3.921875 -7.546875 L 5.75 -8.46875 C 6.207031 -7.582031 6.597656 -6.726562 6.921875 -5.90625 C 7.253906 -5.09375 7.507812 -4.378906 7.6875 -3.765625 C 7.925781 -3.054688 8.226562 -2.570312 8.59375 -2.3125 C 8.96875 -2.050781 9.484375 -1.921875 10.140625 -1.921875 C 10.484375 -1.921875 10.734375 -1.820312 10.890625 -1.625 C 11.054688 -1.4375 11.140625 -1.210938 11.140625 -0.953125 C 11.140625 -0.679688 11.019531 -0.429688 10.78125 -0.203125 C 10.550781 0.015625 10.253906 0.125 9.890625 0.125 C 9.253906 0.125 8.722656 0.0234375 8.296875 -0.171875 C 7.878906 -0.367188 7.535156 -0.632812 7.265625 -0.96875 C 7.097656 -0.0390625 6.75 0.800781 6.21875 1.5625 C 5.6875 2.332031 5.0625 3.003906 4.34375 3.578125 C 3.625 4.148438 2.890625 4.617188 2.140625 4.984375 C 1.398438 5.359375 0.71875 5.628906 0.09375 5.796875 Z M 4.0625 -11.328125 C 3.71875 -11.328125 3.425781 -11.445312 3.1875 -11.6875 C 2.945312 -11.9375 2.828125 -12.226562 2.828125 -12.5625 C 2.828125 -12.894531 2.945312 -13.1875 3.1875 -13.4375 C 3.425781 -13.6875 3.71875 -13.8125 4.0625 -13.8125 C 4.394531 -13.8125 4.679688 -13.6875 4.921875 -13.4375 C 5.171875 -13.1875 5.296875 -12.894531 5.296875 -12.5625 C 5.296875 -12.226562 5.171875 -11.9375 4.921875 -11.6875 C 4.679688 -11.445312 4.394531 -11.328125 4.0625 -11.328125 Z M 4.0625 -11.328125 "/></g></g></g><g fill="#004aad" fill-opacity="1"><g transform="translate(216.006505, 214.048245)"><g><path d="M 0 0.125 L 0.25 -1.921875 C 0.945312 -1.921875 1.492188 -1.984375 1.890625 -2.109375 C 2.296875 -2.234375 2.601562 -2.472656 2.8125 -2.828125 C 3.019531 -3.191406 3.195312 -3.710938 3.34375 -4.390625 C 3.5 -5.078125 3.679688 -5.96875 3.890625 -7.0625 L 5.84375 -6.6875 C 5.738281 -6.238281 5.625 -5.722656 5.5 -5.140625 C 5.375 -4.554688 5.3125 -4.066406 5.3125 -3.671875 C 5.3125 -3.335938 5.382812 -3.035156 5.53125 -2.765625 C 5.6875 -2.503906 6.007812 -2.296875 6.5 -2.140625 C 6.988281 -1.992188 7.757812 -1.921875 8.8125 -1.921875 C 9.164062 -1.921875 9.421875 -1.820312 9.578125 -1.625 C 9.734375 -1.4375 9.8125 -1.210938 9.8125 -0.953125 C 9.8125 -0.679688 9.691406 -0.429688 9.453125 -0.203125 C 9.222656 0.015625 8.925781 0.125 8.5625 0.125 C 7.25 0.125 6.273438 -0.015625 5.640625 -0.296875 C 5.003906 -0.578125 4.570312 -1.003906 4.34375 -1.578125 C 3.84375 -0.878906 3.265625 -0.421875 2.609375 -0.203125 C 1.960938 0.015625 1.09375 0.125 0 0.125 Z M 4.65625 -9.625 C 4.3125 -9.625 4.019531 -9.742188 3.78125 -9.984375 C 3.539062 -10.234375 3.421875 -10.523438 3.421875 -10.859375 C 3.421875 -11.191406 3.539062 -11.484375 3.78125 -11.734375 C 4.019531 -11.984375 4.3125 -12.109375 4.65625 -12.109375 C 4.988281 -12.109375 5.273438 -11.984375 5.515625 -11.734375 C 5.765625 -11.484375 5.890625 -11.191406 5.890625 -10.859375 C 5.890625 -10.523438 5.765625 -10.234375 5.515625 -9.984375 C 5.273438 -9.742188 4.988281 -9.625 4.65625 -9.625 Z M 4.65625 -9.625 "/></g></g></g><g fill="#004aad" fill-opacity="1"><g transform="translate(224.569398, 214.048245)"><g><path d="M 0 0.125 L 0.25 -1.921875 L 2.59375 -1.921875 C 3.5625 -1.921875 4.335938 -1.972656 4.921875 -2.078125 C 5.503906 -2.191406 5.929688 -2.332031 6.203125 -2.5 C 6.472656 -2.675781 6.65625 -2.867188 6.75 -3.078125 C 6.84375 -3.285156 6.890625 -3.5 6.890625 -3.71875 C 6.890625 -4.101562 6.742188 -4.578125 6.453125 -5.140625 C 6.160156 -5.710938 5.566406 -6.445312 4.671875 -7.34375 C 4.054688 -7.976562 3.4375 -8.535156 2.8125 -9.015625 C 2.195312 -9.492188 1.691406 -9.898438 1.296875 -10.234375 C 0.898438 -10.566406 0.703125 -10.8125 0.703125 -10.96875 C 0.703125 -11.34375 0.742188 -11.695312 0.828125 -12.03125 C 0.910156 -12.363281 1.039062 -12.625 1.21875 -12.8125 C 1.882812 -13.519531 2.925781 -14.234375 4.34375 -14.953125 C 5.769531 -15.671875 7.550781 -16.570312 9.6875 -17.65625 L 10.53125 -15.8125 C 9.019531 -15.070312 7.785156 -14.460938 6.828125 -13.984375 C 5.867188 -13.515625 5.078125 -13.097656 4.453125 -12.734375 C 3.828125 -12.378906 3.25 -12.019531 2.71875 -11.65625 C 4.664062 -10.070312 6.160156 -8.648438 7.203125 -7.390625 C 8.242188 -6.140625 8.765625 -4.875 8.765625 -3.59375 C 8.765625 -3.226562 8.695312 -2.828125 8.5625 -2.390625 C 8.425781 -1.960938 8.140625 -1.554688 7.703125 -1.171875 C 7.273438 -0.785156 6.628906 -0.472656 5.765625 -0.234375 C 4.898438 0.00390625 3.734375 0.125 2.265625 0.125 Z M 0 0.125 "/></g></g></g></svg>